<?xml version="1.0" standalone="no"?>
<!DOCTYPE svg PUBLIC "-//W3C//DTD SVG 20010904//EN"
 "http://www.w3.org/TR/2001/REC-SVG-20010904/DTD/svg10.dtd">
<svg version="1.0" xmlns="http://www.w3.org/2000/svg"
 width="700.000000pt" height="700.000000pt" viewBox="0 0 700.000000 700.000000"
 preserveAspectRatio="xMidYMid meet">
<metadata>
Created by potrace 1.14, written by Peter Selinger 2001-2017
</metadata>
<g transform="translate(0.000000,700.000000) scale(0.100000,-0.100000)"
fill="#000000" stroke="none">
<path d="M3440 6293 c-127 -51 -2448 -1041 -2488 -1061 -125 -60 -224 -200
-245 -347 -29 -199 75 -406 245 -489 106 -51 2508 -896 2549 -896 46 0 2498
866 2569 907 104 61 193 187 219 311 38 185 -40 385 -190 484 -30 20 -612 273
-1294 564 -1056 449 -1248 528 -1295 530 -30 2 -62 1 -70 -3z m1229 -976 c634
-271 1153 -496 1153 -502 0 -5 -40 -24 -88 -42 -99 -35 -185 -66 -1388 -492
l-845 -300 -1073 380 c-590 210 -1113 395 -1163 412 -49 18 -89 37 -88 42 2
11 2299 993 2323 994 8 0 534 -222 1169 -492z"/>
<path d="M1045 3411 c-69 -18 -127 -64 -159 -127 -51 -102 -13 -234 85 -297
48 -31 2489 -887 2530 -887 46 0 2485 859 2537 893 143 97 125 317 -33 400
-73 38 -134 29 -355 -51 -107 -39 -635 -226 -1172 -416 l-977 -345 -1173 414
c-645 228 -1191 417 -1213 419 -22 3 -53 1 -70 -3z"/>
<path d="M1045 2021 c-69 -18 -127 -64 -159 -127 -51 -102 -13 -233 85 -297
13 -9 579 -214 1257 -456 836 -299 1246 -441 1273 -441 47 0 2484 868 2537
903 122 82 131 266 18 365 -43 38 -133 66 -179 57 -34 -7 -319 -108 -1579
-559 l-797 -285 -1173 419 c-645 231 -1191 422 -1213 424 -22 3 -53 1 -70 -3z"/>
</g>
</svg>
